<?xml version="1.0" encoding="UTF-8"?>
<svg width="20px" height="20px" viewBox="0 0 20 20" version="1.1" xmlns="http://www.w3.org/2000/svg" xmlns:xlink="http://www.w3.org/1999/xlink">
    <!-- Generator: Sketch 52.5 (67469) - http://www.bohemiancoding.com/sketch -->
    <title>播放</title>
    <desc>Created with Sketch.</desc>
    <defs>
        <rect id="path-1" x="16" y="525" width="328" height="432"></rect>
        <filter x="-4.9%" y="-3.2%" width="109.8%" height="107.4%" filterUnits="objectBoundingBox" id="filter-2">
            <feOffset dx="0" dy="2" in="SourceAlpha" result="shadowOffsetOuter1"></feOffset>
            <feGaussianBlur stdDeviation="5" in="shadowOffsetOuter1" result="shadowBlurOuter1"></feGaussianBlur>
            <feColorMatrix values="0 0 0 0 0.698039216   0 0 0 0 0.756862745   0 0 0 0 0.850980392  0 0 0 1 0" type="matrix" in="shadowBlurOuter1"></feColorMatrix>
        </filter>
    </defs>
    <g id="Page-1" stroke="none" stroke-width="1" fill="none" fill-rule="evenodd">
        <g id="活动课/详情" transform="translate(-308.000000, -685.000000)">
            <rect fill="#F2F7FF" x="0" y="0" width="360" height="1078"></rect>
            <g id="矩形" fill-rule="nonzero">
                <use fill="black" fill-opacity="1" filter="url(#filter-2)" xlink:href="#path-1"></use>
                <use fill="#FFFFFF" xlink:href="#path-1"></use>
            </g>
            <g id="分组-4-copy" transform="translate(16.000000, 677.000000)">
                <rect id="矩形" fill-rule="nonzero" x="0" y="0" width="328" height="60"></rect>
                <g id="播放" transform="translate(292.000000, 8.000000)">
                    <g id="分组">
                        <rect id="矩形" fill="#000000" opacity="0" x="0" y="0" width="20" height="20"></rect>
                        <path d="M10,1.25 C5.1675,1.25 1.25,5.1675 1.25,10 C1.25,14.8325 5.1675,18.75 10,18.75 C14.8325,18.75 18.75,14.8325 18.75,10 C18.75,5.1675 14.8325,1.25 10,1.25 Z M8.09875,14.185 L8.09875,5.815 L14.185,9.535 L8.09875,14.185 Z" id="形状" fill="#F8B739" fill-rule="nonzero"></path>
                    </g>
                </g>
            </g>
        </g>
    </g>
</svg>